<?xml version="1.0" encoding="UTF-8"?>
<svg width="100" height="60" viewBox="0 0 100 60" xmlns="http://www.w3.org/2000/svg">
    <!-- Engine glow effect -->
    <defs>
        <radialGradient id="engineGlow" cx="50%" cy="100%" r="50%">
            <stop offset="0%" style="stop-color:rgba(255,100,0,0.6)"/>
            <stop offset="100%" style="stop-color:rgba(255,100,0,0)"/>
        </radialGradient>
    </defs>
    
    <!-- Engine glow -->
    <ellipse cx="50" cy="55" rx="25" ry="15" fill="url(#engineGlow)"/>
    
    <!-- Main body -->
    <path d="M40 45 L60 45 L65 15 L50 5 L35 15 Z" 
          fill="#4488ff" stroke="#2a2a2a" stroke-width="2"/>
    
    <!-- Wings -->
    <path d="M50 25 L20 40 L25 45 L50 35" 
          fill="#88ccff" stroke="#2a2a2a" stroke-width="2"/>
    <path d="M50 25 L80 40 L75 45 L50 35" 
          fill="#88ccff" stroke="#2a2a2a" stroke-width="2"/>
    
    <!-- Tail fins -->
    <path d="M45 15 L35 5 L40 5 L50 15" 
          fill="#88ccff" stroke="#2a2a2a" stroke-width="2"/>
    <path d="M55 15 L65 5 L60 5 L50 15" 
          fill="#88ccff" stroke="#2a2a2a" stroke-width="2"/>
    
    <!-- Cockpit -->
    <ellipse cx="50" cy="25" rx="8" ry="5" 
             fill="#b4e2ff" stroke="#2a2a2a" stroke-width="1.5"/>
    <ellipse cx="50" cy="25" rx="6" ry="3" 
             fill="#e8f7ff" stroke="#2a2a2a" stroke-width="1"/>
             
    <!-- Engine details -->
    <rect x="45" y="40" width="10" height="5" 
          fill="#2a2a2a" stroke="#1a1a1a" stroke-width="1"/>
</svg> 